<?xml version="1.0" encoding="utf-8"?>
<!-- Generator: Adobe Illustrator 25.2.3, SVG Export Plug-In . SVG Version: 6.00 Build 0)  -->
<svg version="1.1" id="Layer_1" xmlns="http://www.w3.org/2000/svg" xmlns:xlink="http://www.w3.org/1999/xlink" x="0px" y="0px"
	 viewBox="0 0 841.89 595.28" style="enable-background:new 0 0 841.89 595.28;" xml:space="preserve">
<style type="text/css">
	.st0{fill:#1C75BC;}
	.st1{fill:#DA1C5C;}
	.st2{fill:#7F3F98;}
	.st3{fill:#F15A29;}
	.st4{fill:#BE1E2D;}
	.st5{fill:#FFF200;}
	.st6{fill:#EF4136;}
	.st7{fill:none;stroke:#000000;stroke-miterlimit:10;}
</style>
<circle class="st0" cx="157.96" cy="267.74" r="3.55"/>
<circle class="st1" cx="160.08" cy="256.95" r="7.54"/>
<ellipse class="st2" cx="164.76" cy="291.71" rx="10.96" ry="10.58"/>
<circle class="st0" cx="325.33" cy="271.92" r="11.17"/>
<circle class="st3" cx="399.5" cy="285.6" r="5.7"/>
<circle class="st0" cx="372.48" cy="312.37" r="7.54"/>
<circle class="st2" cx="393.19" cy="297.23" r="7.54"/>
<circle class="st0" cx="398.31" cy="272.36" r="7.54"/>
<circle class="st1" cx="339.46" cy="241.7" r="8.27"/>
<circle class="st2" cx="331.51" cy="302" r="7.54"/>
<circle class="st0" cx="368.51" cy="237.54" r="7.54"/>
<circle class="st1" cx="388.93" cy="281.51" r="4.87"/>
<circle class="st1" cx="386.98" cy="272.97" r="2.91"/>
<circle class="st3" cx="388.93" cy="266.03" r="3.96"/>
<ellipse transform="matrix(0.3812 -0.9245 0.9245 0.3812 -61.8472 484.4399)" class="st1" cx="330.96" cy="288.42" rx="6.17" ry="6.12"/>
<circle class="st3" cx="378.11" cy="302.7" r="3.16"/>
<circle class="st2" cx="320.73" cy="286.43" r="4.6"/>
<circle class="st3" cx="335.03" cy="281.08" r="2.31"/>
<circle class="st0" cx="323.67" cy="292.53" r="2.31"/>
<ellipse class="st1" cx="385.65" cy="308.06" rx="5.73" ry="6.06"/>
<ellipse class="st1" cx="395.63" cy="258.75" rx="5.73" ry="6.06"/>
<circle class="st2" cx="282.97" cy="214.67" r="1.86"/>
<circle class="st1" cx="165.1" cy="278.15" r="2.99"/>
<ellipse class="st2" cx="177.2" cy="312.61" rx="4.57" ry="4.26"/>
<circle class="st1" cx="155.01" cy="248.2" r="1.66"/>
<circle class="st0" cx="154.41" cy="283.74" r="1.96"/>
<circle class="st2" cx="384.97" cy="260.14" r="2.77"/>
<circle class="st2" cx="288.63" cy="242.47" r="2.65"/>
<circle class="st2" cx="280.9" cy="253.88" r="3.66"/>
<circle class="st2" cx="349" cy="316.92" r="3.04"/>
<circle class="st0" cx="384.41" cy="291.43" r="2.92"/>
<circle class="st3" cx="265.01" cy="236.96" r="3.19"/>
<ellipse class="st1" cx="341.33" cy="311.33" rx="5.73" ry="6.06"/>
<ellipse class="st3" cx="359.86" cy="316" rx="5.08" ry="5.37"/>
<circle class="st1" cx="274.64" cy="253.27" r="2.31"/>
<circle class="st1" cx="230.9" cy="278.93" r="2.89"/>
<circle class="st0" cx="172.63" cy="246.54" r="1.58"/>
<circle class="st1" cx="359.17" cy="308.06" r="2.59"/>
<circle class="st1" cx="357.69" cy="241.19" r="3.27"/>
<circle class="st3" cx="351.79" cy="234.84" r="4.92"/>
<circle class="st3" cx="192.73" cy="314.85" r="5.29"/>
<ellipse transform="matrix(0.8387 -0.5446 0.5446 0.8387 -85.3317 219.1189)" class="st2" cx="327.2" cy="253.6" rx="7.09" ry="7.42"/>
<circle class="st2" cx="170.49" cy="251.71" r="3.72"/>
<circle class="st0" cx="168.09" cy="269.06" r="6.57"/>
<circle class="st0" cx="352.06" cy="309.49" r="4.92"/>
<circle class="st1" cx="381.22" cy="237.92" r="4.92"/>
<circle class="st3" cx="385.05" cy="249.55" r="7.7"/>
<circle class="st0" cx="219.86" cy="311.13" r="5.83"/>
<circle class="st1" cx="205.11" cy="308.18" r="4.24"/>
<circle class="st0" cx="185.33" cy="308.18" r="4.75"/>
<circle class="st0" cx="198.03" cy="308.36" r="3.18"/>
<circle class="st2" cx="232.33" cy="297.56" r="1.9"/>
<circle class="st3" cx="337.99" cy="293.74" r="2.58"/>
<ellipse transform="matrix(0.983 -0.1838 0.1838 0.983 -51.9097 44.9865)" class="st3" cx="216.72" cy="302.52" rx="3.51" ry="3.48"/>
<circle class="st3" cx="171.64" cy="317.03" r="2.77"/>
<circle class="st3" cx="171.17" cy="279.03" r="3.37"/>
<circle class="st0" cx="176.24" cy="318.92" r="2.25"/>
<circle class="st2" cx="179.72" cy="319.95" r="1.51"/>
<circle class="st3" cx="200.51" cy="304.32" r="1.73"/>
<ellipse transform="matrix(0.8387 -0.5446 0.5446 0.8387 -87.8818 224.5101)" class="st1" cx="335.03" cy="260.6" rx="3.96" ry="3.74"/>
<ellipse transform="matrix(0.8387 -0.5446 0.5446 0.8387 -83.5916 224.9934)" class="st0" cx="337.99" cy="253.6" rx="3.96" ry="3.74"/>
<circle class="st2" cx="345.07" cy="232.95" r="1.95"/>
<circle class="st4" cx="347.28" cy="247.54" r="1.42"/>
<circle class="st0" cx="319.37" cy="259.52" r="2.39"/>
<circle class="st3" cx="328.81" cy="244.08" r="2.38"/>
<circle class="st2" cx="336.5" cy="266.03" r="1.21"/>
<ellipse transform="matrix(0.8387 -0.5446 0.5446 0.8387 -76.0442 229.9755)" class="st2" cx="350.17" cy="243.35" rx="2.78" ry="2.98"/>
<circle class="st4" cx="353.1" cy="240.76" r="1.09"/>
<circle class="st2" cx="358.33" cy="236.38" r="1.28"/>
<circle class="st1" cx="170.82" cy="259.86" r="2.52"/>
<circle class="st3" cx="333.24" cy="311.33" r="1.73"/>
<circle class="st2" cx="347.07" cy="304.18" r="1.98"/>
<circle class="st2" cx="381.89" cy="297.23" r="3.17"/>
<circle class="st3" cx="376.49" cy="232.54" r="1.73"/>
<circle class="st0" cx="376.76" cy="243.69" r="2.44"/>
<ellipse transform="matrix(0.8387 -0.5446 0.5446 0.8387 -142.9957 151.4372)" class="st1" cx="184.12" cy="317.09" rx="3.96" ry="3.74"/>
<ellipse transform="matrix(0.8387 -0.5446 0.5446 0.8387 -136.262 154.4942)" class="st2" cx="192.65" cy="307.25" rx="2.49" ry="2.35"/>
<circle class="st2" cx="188.58" cy="319.67" r="1.16"/>
<circle class="st3" cx="342.3" cy="302" r="3.16"/>
<circle class="st0" cx="359.86" cy="231.45" r="2.82"/>
<circle class="st2" cx="322.9" cy="300.96" r="1.03"/>
<circle class="st0" cx="340.32" cy="297.53" r="1.62"/>
<circle class="st2" cx="200.38" cy="313.81" r="2.67"/>
<circle class="st1" cx="66.24" cy="282.61" r="7.3"/>
<circle class="st3" cx="93.41" cy="280.23" r="8.39"/>
<circle class="st1" cx="50.08" cy="259.86" r="10.13"/>
<circle class="st2" cx="270.6" cy="227.27" r="7.66"/>
<circle class="st1" cx="77.46" cy="206.7" r="13.53"/>
<circle class="st3" cx="163.28" cy="239.47" r="10.13"/>
<circle class="st1" cx="274.24" cy="265.74" r="10.13"/>
<circle class="st3" cx="273.08" cy="207.73" r="10.13"/>
<circle class="st0" cx="276.67" cy="241.65" r="9.32"/>
<circle class="st2" cx="31.63" cy="310.7" r="10.13"/>
<circle class="st3" cx="59.09" cy="231.26" r="7.39"/>
<circle class="st0" cx="296.29" cy="237.54" r="6.54"/>
<circle class="st0" cx="286.88" cy="234.27" r="3.92"/>
<circle class="st0" cx="280.3" cy="220.32" r="4.24"/>
<ellipse transform="matrix(0.129 -0.9917 0.9917 0.129 -259.6021 286.7509)" class="st0" cx="33.43" cy="291.15" rx="6.35" ry="6.3"/>
<circle class="st1" cx="255.74" cy="238.51" r="6.18"/>
<circle class="st1" cx="83.27" cy="286.48" r="3.1"/>
<circle class="st1" cx="43.03" cy="302.76" r="3.76"/>
<circle class="st0" cx="27.12" cy="298.29" r="3.1"/>
<circle class="st2" cx="71.16" cy="274.19" r="2.49"/>
<circle class="st0" cx="54.93" cy="284.25" r="4.01"/>
<circle class="st3" cx="54.04" cy="275.03" r="4.9"/>
<circle class="st0" cx="61.43" cy="274.81" r="2.49"/>
<ellipse transform="matrix(0.9659 -0.2588 0.2588 0.9659 -69.1649 29.932)" class="st0" cx="79.1" cy="277.65" rx="6.14" ry="5.72"/>
<circle class="st5" cx="50.08" cy="288.68" r="2.24"/>
<circle class="st3" cx="33.43" cy="281.62" r="2.63"/>
<circle class="st3" cx="175.72" cy="303.15" r="5.19"/>
<circle class="st3" cx="76.31" cy="286.45" r="3.56"/>
<circle class="st3" cx="49.14" cy="245.51" r="4.08"/>
<circle class="st2" cx="51.69" cy="238.66" r="2.98"/>
<circle class="st1" cx="281.47" cy="227.79" r="3.21"/>
<circle class="st3" cx="157.33" cy="276.68" r="5.02"/>
<ellipse transform="matrix(0.9659 -0.2588 0.2588 0.9659 -74.3011 53.5098)" class="st1" cx="166.07" cy="308.94" rx="6.53" ry="6.9"/>
<ellipse transform="matrix(0.9659 -0.2588 0.2588 0.9659 -71.6773 20.7678)" class="st1" cx="43.03" cy="282.61" rx="6.82" ry="7.21"/>
<circle class="st0" cx="46.13" cy="272.32" r="3.1"/>
<circle class="st0" cx="60.21" cy="246.08" r="6.5"/>
<circle class="st0" cx="44.88" cy="294.59" r="4.87"/>
<circle class="st0" cx="35.36" cy="276.31" r="2.12"/>
<circle class="st0" cx="83.27" cy="222.79" r="4.3"/>
<circle class="st2" cx="38.62" cy="271" r="4.41"/>
<circle class="st3" cx="37.78" cy="299.06" r="2.95"/>
<circle class="st1" cx="66.48" cy="238.34" r="2.98"/>
<circle class="st2" cx="69.61" cy="224.4" r="4.84"/>
<circle class="st0" cx="68.89" cy="232.48" r="2.98"/>
<circle class="st1" cx="61.57" cy="216.93" r="5.86"/>
<circle class="st2" cx="94.21" cy="232.48" r="10.13"/>
<circle class="st1" cx="92.27" cy="217.99" r="4.16"/>
<circle class="st2" cx="93.41" cy="210.66" r="2.98"/>
<circle class="st2" cx="97.94" cy="249.17" r="4.01"/>
<circle class="st3" cx="104.34" cy="243.3" r="4.9"/>
<circle class="st0" cx="93.05" cy="253.71" r="2.49"/>
<circle class="st1" cx="91.17" cy="246.08" r="3.28"/>
<circle class="st3" cx="100.44" cy="260.57" r="7.39"/>
<circle class="st1" cx="109.24" cy="252.11" r="4.9"/>
<circle class="st2" cx="103.89" cy="271" r="3.1"/>
<circle class="st0" cx="111.98" cy="260" r="3.56"/>
<circle class="st1" cx="98.56" cy="270.18" r="2.22"/>
<circle class="st0" cx="117.03" cy="279.45" r="6.82"/>
<circle class="st1" cx="109.51" cy="273.63" r="2.12"/>
<circle class="st1" cx="114.44" cy="267.9" r="4.41"/>
<circle class="st0" cx="108.1" cy="266.94" r="2.12"/>
<circle class="st0" cx="105.97" cy="280.23" r="4.41"/>
<circle class="st2" cx="102.63" cy="287.04" r="3.1"/>
<circle class="st3" cx="111.98" cy="292.64" r="6.82"/>
<circle class="st0" cx="102.03" cy="275.76" r="1.25"/>
<ellipse transform="matrix(0.9847 -0.1744 0.1744 0.9847 -51.2049 27.0879)" class="st3" cx="128.5" cy="304.85" rx="5.06" ry="5.1"/>
<circle class="st0" cx="120.79" cy="299.31" r="3.76"/>
<ellipse transform="matrix(0.8438 -0.5366 0.5366 0.8438 -149.8797 114.7337)" class="st1" cx="122.17" cy="314.86" rx="6.82" ry="7.21"/>
<circle class="st2" cx="123.43" cy="289.58" r="4.87"/>
<circle class="st1" cx="127.8" cy="296.12" r="2.95"/>
<ellipse transform="matrix(0.9847 -0.1744 0.1744 0.9847 -51.4615 24.4529)" class="st2" cx="113.38" cy="305" rx="5.06" ry="5.1"/>
<circle class="st0" cx="132.24" cy="312.61" r="2.95"/>
<circle class="st2" cx="153.8" cy="264.19" r="1.9"/>
<circle class="st0" cx="157.87" cy="303.51" r="3.2"/>
<ellipse transform="matrix(0.8387 -0.5446 0.5446 0.8387 -131.0316 160.7371)" class="st3" cx="205.8" cy="301.55" rx="2.49" ry="2.35"/>
<circle class="st0" cx="210.63" cy="303.94" r="2.67"/>
<circle class="st1" cx="211.23" cy="297.56" r="3.76"/>
<circle class="st0" cx="222.55" cy="289.93" r="10.49"/>
<ellipse class="st1" cx="228.72" cy="304.6" rx="5.28" ry="4.91"/>
<circle class="st2" cx="222.14" cy="302.29" r="1.73"/>
<circle class="st3" cx="229.39" cy="313.7" r="4.15"/>
<circle class="st1" cx="224.25" cy="318.7" r="3.1"/>
<circle class="st2" cx="219.01" cy="318.4" r="1.73"/>
<circle class="st2" cx="215.86" cy="277.95" r="3.18"/>
<circle class="st3" cx="223.17" cy="272.32" r="6.57"/>
<circle class="st2" cx="233.03" cy="283.66" r="1.9"/>
<circle class="st0" cx="232.69" cy="272.75" r="2.99"/>
<circle class="st2" cx="215.43" cy="266.48" r="3.37"/>
<circle class="st0" cx="222.14" cy="260.72" r="5.02"/>
<circle class="st1" cx="214.46" cy="272.65" r="1.9"/>
<circle class="st3" cx="230.19" cy="264.35" r="4.13"/>
<circle class="st6" cx="214.68" cy="260.51" r="2.42"/>
<circle class="st0" cx="215.86" cy="253.78" r="4.13"/>
<circle class="st2" cx="223.17" cy="252.68" r="2.99"/>
<circle class="st1" cx="230.19" cy="255.82" r="4.2"/>
<circle class="st0" cx="214.05" cy="244.36" r="1.49"/>
<circle class="st1" cx="219.5" cy="246" r="4.2"/>
<circle class="st3" cx="215.43" cy="239.88" r="2.99"/>
<circle class="st2" cx="214.05" cy="248.24" r="1.49"/>
<circle class="st0" cx="229" cy="246.68" r="5.02"/>
<circle class="st3" cx="224.32" cy="235.9" r="6.57"/>
<circle class="st1" cx="231.8" cy="239.88" r="1.89"/>
<circle class="st2" cx="215.86" cy="234.63" r="1.89"/>
<circle class="st1" cx="265.3" cy="218.24" r="2.85"/>
<circle class="st2" cx="261.62" cy="232.6" r="1.86"/>
<circle class="st2" cx="264.1" cy="243.43" r="3.38"/>
<circle class="st3" cx="266.75" cy="250.96" r="4.24"/>
<circle class="st2" cx="264.7" cy="257.42" r="2.31"/>
<circle class="st2" cx="265.48" cy="275.53" r="3.02"/>
<circle class="st0" cx="282.76" cy="274.46" r="1.71"/>
<circle class="st2" cx="278.27" cy="282.11" r="6.57"/>
<circle class="st3" cx="270.6" cy="277.79" r="2.4"/>
<circle class="st0" cx="266.75" cy="283.99" r="5.02"/>
<circle class="st1" cx="269.5" cy="301.13" r="5.83"/>
<ellipse transform="matrix(0.983 -0.1838 0.1838 0.983 -49.2261 53.9393)" class="st2" cx="266.36" cy="292.52" rx="3.51" ry="3.48"/>
<ellipse class="st3" cx="278.36" cy="294.6" rx="5.28" ry="4.91"/>
<circle class="st4" cx="271.78" cy="292.29" r="1.73"/>
<circle class="st2" cx="279.03" cy="303.7" r="4.15"/>
<circle class="st3" cx="273.89" cy="308.7" r="3.1"/>
<circle class="st4" cx="272.33" cy="288.2" r="1.73"/>
<circle class="st1" cx="282.76" cy="289.15" r="1.73"/>
<circle class="st2" cx="267.69" cy="310.06" r="3.1"/>
<circle class="st1" cx="275.33" cy="315.64" r="4.13"/>
<circle class="st1" cx="285.78" cy="304.92" r="2.42"/>
<circle class="st2" cx="286.75" cy="310.17" r="2.99"/>
<circle class="st3" cx="283.61" cy="317.19" r="4.2"/>
<circle class="st0" cx="296.55" cy="306.36" r="1.49"/>
<circle class="st3" cx="292.39" cy="307.85" r="2.67"/>
<circle class="st2" cx="295.76" cy="310.17" r="1.27"/>
<circle class="st1" cx="292.75" cy="316" r="5.02"/>
<circle class="st1" cx="303.53" cy="311.33" r="6.57"/>
<circle class="st0" cx="299.35" cy="318.58" r="1.89"/>
<circle class="st0" cx="280.42" cy="310.61" r="2.76"/>
<circle class="st3" cx="269.5" cy="314.5" r="1.49"/>
<circle class="st2" cx="283.43" cy="299.51" r="1.95"/>
<circle class="st0" cx="316.93" cy="281.51" r="1.64"/>
<circle class="st3" cx="322.51" cy="297.3" r="2.58"/>
<circle class="st0" cx="319.64" cy="293.06" r="1.64"/>
<circle class="st2" cx="372.93" cy="245.64" r="1.95"/>
<circle class="st1" cx="375.82" cy="247.87" r="1.54"/>
<circle class="st0" cx="395.94" cy="249.03" r="3.27"/>
<circle class="st2" cx="388.24" cy="239.87" r="2.44"/>
<circle class="st1" cx="392.67" cy="243.43" r="1.95"/>
<circle class="st2" cx="402.68" cy="263.37" r="1.95"/>
<circle class="st2" cx="388.93" cy="288.69" r="1.82"/>
<circle class="st0" cx="401.75" cy="293.12" r="1.82"/>
<circle class="st3" cx="363.92" cy="308.06" r="1.82"/>
<circle class="st1" cx="353.44" cy="319.13" r="1.82"/>
<circle class="st2" cx="366.02" cy="319.55" r="1.82"/>
<circle class="st3" cx="381.74" cy="315.1" r="1.82"/>
<circle class="st3" cx="485.37" cy="238.66" r="5.37"/>
<circle class="st3" cx="433.12" cy="255.62" r="7.54"/>
<circle class="st3" cx="472.56" cy="236.15" r="7.54"/>
<circle class="st3" cx="492.45" cy="249.62" r="7.54"/>
<circle class="st3" cx="429.25" cy="236.58" r="8.27"/>
<circle class="st3" cx="535.38" cy="259.58" r="7.54"/>
<circle class="st3" cx="516.27" cy="235.7" r="7.54"/>
<circle class="st3" cx="423.31" cy="295.67" r="4.15"/>
<circle class="st3" cx="436.04" cy="266.08" r="2.91"/>
<circle class="st3" cx="421.62" cy="257.8" r="3.96"/>
<ellipse transform="matrix(0.3812 -0.9245 0.9245 0.3812 88.8446 614.7211)" class="st3" cx="503.63" cy="240.99" rx="6.17" ry="6.12"/>
<circle class="st3" cx="438.1" cy="296.77" r="3.16"/>
<circle class="st3" cx="446.47" cy="242.39" r="4.6"/>
<circle class="st3" cx="506.8" cy="233.29" r="2.31"/>
<circle class="st3" cx="536" cy="232.42" r="2.31"/>
<ellipse class="st3" cx="479.17" cy="248.08" rx="5.73" ry="6.06"/>
<ellipse class="st3" cx="543.06" cy="245.15" rx="5.73" ry="6.06"/>
<circle class="st3" cx="540.95" cy="236.7" r="2.77"/>
<circle class="st3" cx="429.25" cy="278.94" r="3.04"/>
<circle class="st3" cx="438.1" cy="290.34" r="2.92"/>
<ellipse class="st3" cx="429.84" cy="287.79" rx="5.73" ry="6.06"/>
<circle class="st3" cx="436.72" cy="275.62" r="4.92"/>
<circle class="st3" cx="438.1" cy="283.88" r="3.34"/>
<circle class="st3" cx="462.77" cy="241.2" r="3.27"/>
<circle class="st3" cx="455.19" cy="236.15" r="4.92"/>
<ellipse class="st3" cx="422.46" cy="281.1" rx="4.09" ry="4.31"/>
<circle class="st3" cx="528.98" cy="236.08" r="4.92"/>
<circle class="st3" cx="425.58" cy="269.09" r="7.7"/>
<ellipse transform="matrix(0.3812 -0.9245 0.9245 0.3812 28.9753 569.6104)" class="st3" cx="440" cy="263.16" rx="1.85" ry="2"/>
<ellipse transform="matrix(0.8387 -0.5446 0.5446 0.8387 -66.8198 270.574)" class="st3" cx="423.31" cy="248.08" rx="3.96" ry="3.74"/>
<circle class="st3" cx="448.48" cy="236.15" r="1.95"/>
<circle class="st3" cx="445.91" cy="248.83" r="1.42"/>
<circle class="st3" cx="437.52" cy="244.12" r="2.39"/>
<circle class="st3" cx="528.48" cy="229.48" r="1.21"/>
<circle class="st3" cx="453.22" cy="243.17" r="2.1"/>
<circle class="st3" cx="456.51" cy="242.08" r="1.09"/>
<circle class="st3" cx="461.4" cy="236.58" r="1.28"/>
<circle class="st3" cx="440.11" cy="268.6" r="1.73"/>
<circle class="st3" cx="442.63" cy="254.3" r="1.98"/>
<circle class="st3" cx="535.13" cy="248.83" r="3.17"/>
<circle class="st3" cx="524.52" cy="230.11" r="2.38"/>
<circle class="st3" cx="524.52" cy="241.85" r="2.44"/>
<circle class="st3" cx="441.47" cy="248.83" r="3.16"/>
<circle class="st3" cx="462.25" cy="232.42" r="2.82"/>
<circle class="st3" cx="424.34" cy="253.27" r="1.03"/>
<circle class="st3" cx="471.24" cy="245.88" r="2.2"/>
<circle class="st3" cx="433.12" cy="245.96" r="1.64"/>
<circle class="st3" cx="420.98" cy="288.73" r="2.58"/>
<circle class="st3" cx="420.98" cy="242.39" r="1.64"/>
<circle class="st3" cx="525.32" cy="246.28" r="1.95"/>
<circle class="st3" cx="511.02" cy="242.95" r="1.54"/>
<circle class="st3" cx="530.54" cy="244.33" r="3.27"/>
<circle class="st3" cx="536" cy="238.02" r="2.44"/>
<circle class="st3" cx="531.96" cy="230.18" r="1.95"/>
<circle class="st3" cx="535.38" cy="242.39" r="1.95"/>
<circle class="st3" cx="430.37" cy="296.27" r="2.92"/>
<circle class="st3" cx="466.05" cy="228.61" r="1.82"/>
<circle class="st3" cx="441.64" cy="259.18" r="1.82"/>
<circle class="st3" cx="429.25" cy="246.91" r="1.82"/>
<ellipse transform="matrix(0.3812 -0.9245 0.9245 0.3812 -19.1043 578.9094)" class="st3" cx="422.91" cy="303.73" rx="3.25" ry="3.58"/>
<circle class="st3" cx="481.82" cy="232" r="1.82"/>
<circle class="st3" cx="419.8" cy="252.48" r="1.82"/>
<circle class="st3" cx="458.23" cy="230.18" r="1.48"/>
<circle class="st3" cx="521.13" cy="243.6" r="1.21"/>
<circle class="st3" cx="528.98" cy="249.98" r="2.38"/>
<circle class="st3" cx="528.62" cy="253.89" r="1.21"/>
<circle class="st3" cx="476.84" cy="269.54" r="2.89"/>
<circle class="st3" cx="493.17" cy="268.86" r="3.18"/>
<circle class="st3" cx="485.36" cy="275.22" r="6.57"/>
<circle class="st3" cx="476.23" cy="277.36" r="2.55"/>
<circle class="st3" cx="493.17" cy="282.31" r="3.37"/>
<circle class="st3" cx="486.35" cy="287.93" r="5.02"/>
<circle class="st3" cx="478.05" cy="283.99" r="4.13"/>
<circle class="st3" cx="493.8" cy="288.3" r="2.42"/>
<circle class="st3" cx="492.47" cy="295" r="4.13"/>
<circle class="st3" cx="485.15" cy="295.95" r="2.99"/>
<circle class="st3" cx="478.19" cy="292.66" r="4.2"/>
<circle class="st3" cx="494.09" cy="304.45" r="1.49"/>
<circle class="st3" cx="488.67" cy="302.7" r="4.2"/>
<circle class="st3" cx="492.61" cy="308.9" r="2.99"/>
<circle class="st3" cx="494.17" cy="300.58" r="1.49"/>
<circle class="st3" cx="479.19" cy="301.82" r="5.02"/>
<circle class="st3" cx="483.63" cy="312.7" r="6.57"/>
<circle class="st3" cx="476.25" cy="308.55" r="1.89"/>
<circle class="st3" cx="492.07" cy="314.15" r="1.89"/>
<circle class="st3" cx="493.17" cy="277.36" r="1.49"/>
<circle class="st3" cx="494.07" cy="273.96" r="1.49"/>
<circle class="st3" cx="474.74" cy="273.54" r="1.49"/>
<circle class="st3" cx="476.43" cy="262.96" r="3.37"/>
<circle class="st3" cx="483.45" cy="258.15" r="5.02"/>
<circle class="st3" cx="493.17" cy="261.3" r="4.13"/>
<circle class="st3" cx="475.43" cy="256.74" r="2.42"/>
<circle class="st3" cx="482.42" cy="265.69" r="2.42"/>
<circle class="st3" cx="487.8" cy="265.69" r="2.89"/>
<circle class="st3" cx="547.61" cy="263.07" r="3.02"/>
<circle class="st3" cx="530.34" cy="268.83" r="2.52"/>
<circle class="st3" cx="544.39" cy="272.42" r="6.57"/>
<circle class="st3" cx="535.68" cy="269.57" r="2.01"/>
<circle class="st3" cx="532.67" cy="276.43" r="5.02"/>
<circle class="st3" cx="536.86" cy="292.53" r="5.83"/>
<ellipse transform="matrix(0.983 -0.1838 0.1838 0.983 -43.3248 102.5566)" class="st3" cx="531.58" cy="284.99" rx="3.51" ry="3.48"/>
<ellipse class="st3" cx="543.96" cy="284.19" rx="5.28" ry="4.91"/>
<circle class="st3" cx="536.6" cy="283.4" r="2.04"/>
<circle class="st3" cx="546.53" cy="292.88" r="4.15"/>
<circle class="st3" cx="538.81" cy="279.27" r="1.73"/>
<circle class="st3" cx="549.24" cy="279.89" r="1.73"/>
<circle class="st3" cx="530.34" cy="298.58" r="3.1"/>
<circle class="st3" cx="529.15" cy="290.2" r="2.42"/>
<circle class="st3" cx="535.68" cy="301.12" r="2.76"/>
<circle class="st3" cx="550.01" cy="287.78" r="1.95"/>
<circle class="st3" cx="546.21" cy="255.63" r="4.42"/>
<circle class="st3" cx="543.18" cy="264.03" r="1.21"/>
<circle class="st3" cx="534.69" cy="309.81" r="5.83"/>
<circle class="st3" cx="544.9" cy="302.8" r="5.77"/>
<circle class="st3" cx="530.34" cy="303.65" r="1.73"/>
<circle class="st3" cx="545.08" cy="312.76" r="4.15"/>
<circle class="st3" cx="539.93" cy="317.76" r="3.1"/>
<circle class="st3" cx="534.69" cy="317.45" r="1.73"/>
<circle class="st1" cx="702.02" cy="214.08" r="1.86"/>
<circle class="st1" cx="707.69" cy="241.88" r="2.65"/>
<circle class="st1" cx="699.96" cy="253.3" r="3.66"/>
<circle class="st1" cx="684.06" cy="236.37" r="3.19"/>
<circle class="st1" cx="693.69" cy="252.69" r="2.31"/>
<circle class="st1" cx="689.66" cy="226.68" r="7.66"/>
<circle class="st1" cx="693.29" cy="265.15" r="10.13"/>
<circle class="st1" cx="692.13" cy="207.14" r="10.13"/>
<circle class="st1" cx="695.72" cy="241.06" r="9.32"/>
<circle class="st1" cx="715.34" cy="236.95" r="6.54"/>
<circle class="st1" cx="705.94" cy="233.68" r="3.92"/>
<circle class="st1" cx="699.35" cy="219.74" r="4.24"/>
<circle class="st1" cx="674.79" cy="237.92" r="6.18"/>
<circle class="st1" cx="700.53" cy="227.21" r="3.21"/>
<circle class="st1" cx="684.36" cy="217.65" r="2.85"/>
<circle class="st1" cx="680.68" cy="232.01" r="1.86"/>
<circle class="st1" cx="683.16" cy="242.84" r="3.38"/>
<circle class="st1" cx="685.81" cy="250.38" r="4.24"/>
<circle class="st1" cx="683.75" cy="256.84" r="2.31"/>
<circle class="st1" cx="684.54" cy="274.95" r="3.02"/>
<circle class="st1" cx="701.81" cy="273.88" r="1.71"/>
<circle class="st1" cx="697.32" cy="281.52" r="6.57"/>
<circle class="st1" cx="689.66" cy="277.2" r="2.4"/>
<circle class="st1" cx="685.81" cy="283.4" r="5.02"/>
<circle class="st1" cx="688.55" cy="300.55" r="5.83"/>
<ellipse transform="matrix(0.983 -0.1838 0.1838 0.983 -41.9793 130.9501)" class="st1" cx="685.42" cy="291.93" rx="3.51" ry="3.48"/>
<ellipse class="st1" cx="697.41" cy="294.01" rx="5.28" ry="4.91"/>
<circle class="st1" cx="690.83" cy="291.71" r="1.73"/>
<circle class="st1" cx="698.09" cy="303.12" r="4.15"/>
<circle class="st1" cx="692.95" cy="308.12" r="3.1"/>
<circle class="st1" cx="691.38" cy="287.62" r="1.73"/>
<circle class="st1" cx="701.81" cy="288.56" r="1.73"/>
<circle class="st1" cx="686.75" cy="309.48" r="3.1"/>
<circle class="st1" cx="694.38" cy="315.05" r="4.13"/>
<circle class="st1" cx="704.83" cy="304.33" r="2.42"/>
<circle class="st1" cx="705.8" cy="309.58" r="2.99"/>
<circle class="st1" cx="702.66" cy="316.61" r="4.2"/>
<circle class="st1" cx="715.61" cy="305.77" r="1.49"/>
<circle class="st1" cx="711.45" cy="307.26" r="2.67"/>
<circle class="st1" cx="714.81" cy="309.58" r="1.27"/>
<circle class="st1" cx="711.8" cy="315.41" r="5.02"/>
<circle class="st1" cx="722.58" cy="310.74" r="6.57"/>
<circle class="st1" cx="718.41" cy="317.99" r="1.89"/>
<circle class="st1" cx="699.47" cy="310.03" r="2.76"/>
<circle class="st1" cx="688.55" cy="313.92" r="1.49"/>
<circle class="st1" cx="702.48" cy="298.93" r="1.95"/>
<circle class="st3" cx="438.9" cy="305.44" r="1.49"/>
<circle class="st3" cx="433.48" cy="303.68" r="4.2"/>
<circle class="st3" cx="437.42" cy="309.88" r="2.99"/>
<circle class="st3" cx="438.98" cy="301.56" r="1.49"/>
<circle class="st3" cx="428.44" cy="313.68" r="6.57"/>
<circle class="st3" cx="421.06" cy="309.54" r="1.89"/>
<circle class="st3" cx="436.87" cy="315.13" r="1.89"/>
<circle class="st3" cx="427.47" cy="300.8" r="1.89"/>
<circle class="st3" cx="428.01" cy="305.44" r="1.49"/>
<circle class="st0" cx="575.32" cy="278.24" r="5.7"/>
<circle class="st0" cx="590.3" cy="243.28" r="7.54"/>
<circle class="st0" cx="576.8" cy="265.09" r="7.54"/>
<circle class="st0" cx="580.71" cy="290.47" r="7.54"/>
<ellipse class="st0" cx="648.24" cy="297.51" rx="7.48" ry="7.12"/>
<circle class="st0" cx="632.17" cy="237.49" r="7.54"/>
<circle class="st0" cx="622.27" cy="312.61" r="7.54"/>
<circle class="st0" cx="587.11" cy="279.7" r="4.87"/>
<circle class="st0" cx="591.17" cy="286.69" r="2.91"/>
<circle class="st0" cx="592.36" cy="294.4" r="3.96"/>
<ellipse transform="matrix(5.867324e-03 -1 1 5.867324e-03 384.1646 886.1653)" class="st0" cx="637.77" cy="249.87" rx="6.17" ry="6.12"/>
<circle class="st0" cx="588.71" cy="254.25" r="3.16"/>
<circle class="st0" cx="648" cy="247.86" r="4.6"/>
<circle class="st0" cx="636.76" cy="258.2" r="2.31"/>
<circle class="st0" cx="642.99" cy="243.33" r="2.31"/>
<ellipse transform="matrix(0.9267 -0.3758 0.3758 0.9267 -52.2923 236.3342)" class="st0" cx="579.71" cy="252.22" rx="5.73" ry="6.06"/>
<ellipse transform="matrix(0.9267 -0.3758 0.3758 0.9267 -70.9211 243.0288)" class="st0" cx="587.56" cy="303.33" rx="5.73" ry="6.06"/>
<circle class="st0" cx="596.08" cy="300.99" r="2.77"/>
<circle class="st0" cx="610.35" cy="230.24" r="3.04"/>
<circle class="st0" cx="585.79" cy="271.12" r="2.92"/>
<ellipse transform="matrix(0.9267 -0.3758 0.3758 0.9267 -41.9759 249.8629)" class="st0" cx="619.55" cy="232.54" rx="5.73" ry="6.06"/>
<ellipse transform="matrix(0.9267 -0.3758 0.3758 0.9267 -44.3525 242.9449)" class="st0" cx="600.63" cy="235.17" rx="5.08" ry="5.37"/>
<circle class="st0" cx="604.26" cy="242.27" r="2.59"/>
<circle class="st0" cx="630.75" cy="305.84" r="3.27"/>
<ellipse class="st0" cx="638.81" cy="307.35" rx="4.73" ry="4.92"/>
<ellipse transform="matrix(0.5725 -0.8199 0.8199 0.5725 56.3037 647.8994)" class="st0" cx="649.49" cy="269.95" rx="7.09" ry="7.42"/>
<circle class="st0" cx="610.3" cy="238.28" r="4.92"/>
<circle class="st0" cx="610.17" cy="315.56" r="4.92"/>
<ellipse class="st0" cx="600.96" cy="307.94" rx="6.41" ry="5.98"/>
<circle class="st0" cx="591.41" cy="269.95" r="2.58"/>
<ellipse transform="matrix(0.5725 -0.8199 0.8199 0.5725 48.4083 643.7468)" class="st0" cx="641.56" cy="275.45" rx="2.7" ry="2.56"/>
<circle class="st0" cx="645.55" cy="306.58" r="1.95"/>
<circle class="st0" cx="640.05" cy="263.63" r="3.85"/>
<circle class="st0" cx="638.37" cy="299.69" r="2.38"/>
<circle class="st0" cx="645.55" cy="276.64" r="1.21"/>
<ellipse class="st0" cx="634.3" cy="302.08" rx="1.54" ry="1.36"/>
<ellipse class="st0" cx="632.31" cy="311.03" rx="1.99" ry="1.92"/>
<circle class="st0" cx="627.06" cy="229.5" r="1.73"/>
<circle class="st0" cx="616.93" cy="240.45" r="1.98"/>
<ellipse transform="matrix(0.1143 -0.9934 0.9934 0.1143 261.149 811.6625)" class="st0" cx="585.79" cy="259.37" rx="2.33" ry="2.52"/>
<circle class="st0" cx="616.58" cy="318.77" r="1.73"/>
<circle class="st0" cx="613.15" cy="308.53" r="2.44"/>
<circle class="st0" cx="622.44" cy="240.69" r="2.48"/>
<circle class="st0" cx="631.61" cy="315.82" r="2.82"/>
<circle class="st0" cx="640.53" cy="235.22" r="1.03"/>
<circle class="st0" cx="594.01" cy="252.64" r="2.04"/>
<circle class="st0" cx="653.38" cy="251" r="1.64"/>
<circle class="st0" cx="642.27" cy="238.46" r="2.58"/>
<circle class="st0" cx="646.52" cy="241.32" r="1.64"/>
<circle class="st0" cx="636.25" cy="314.23" r="1.95"/>
<circle class="st0" cx="609.04" cy="307.35" r="1.54"/>
<circle class="st0" cx="592.36" cy="310.79" r="3.27"/>
<circle class="st0" cx="602.94" cy="316.39" r="2.44"/>
<circle class="st0" cx="597.5" cy="314.75" r="1.95"/>
<circle class="st0" cx="579.83" cy="300.04" r="1.95"/>
<circle class="st0" cx="570.51" cy="272.54" r="1.82"/>
<circle class="st0" cx="572.71" cy="285.59" r="1.82"/>
<circle class="st0" cx="599.85" cy="244.05" r="1.82"/>
<circle class="st0" cx="605.4" cy="229.86" r="1.82"/>
<circle class="st0" cx="593.59" cy="234.2" r="1.82"/>
<circle class="st0" cx="580.69" cy="244.23" r="1.82"/>
<ellipse class="st0" cx="644.92" cy="310.44" rx="1.73" ry="1.67"/>
<circle class="st0" cx="642.2" cy="312.61" r="1.09"/>
<ellipse class="st0" cx="649.49" cy="306.58" rx="1.99" ry="1.92"/>
<circle class="st0" cx="639.66" cy="313.72" r="1.09"/>
<circle class="st0" cx="588.71" cy="264.24" r="3.17"/>
<circle class="st0" cx="591.41" cy="259.37" r="1.82"/>
<circle class="st0" cx="582.24" cy="274.52" r="1.82"/>
<circle class="st0" cx="598.51" cy="273.62" r="4.92"/>
<circle class="st0" cx="591.41" cy="274.83" r="1.82"/>
<circle class="st0" cx="593.59" cy="277.63" r="1.21"/>
<ellipse transform="matrix(5.867324e-03 -1 1 5.867324e-03 348.2068 895.7689)" class="st0" cx="624.62" cy="272.76" rx="6.17" ry="6.12"/>
<circle class="st0" cx="635.25" cy="270.75" r="4.6"/>
<circle class="st0" cx="636.76" cy="277.2" r="1.98"/>
<ellipse transform="matrix(0.3251 -0.9457 0.9457 0.3251 165.041 784.5357)" class="st0" cx="632.17" cy="276.64" rx="2.04" ry="1.97"/>
<circle class="st0" cx="610.35" cy="269.11" r="3.16"/>
<ellipse transform="matrix(0.1143 -0.9934 0.9934 0.1143 267.9786 839.1198)" class="st0" cx="604.6" cy="269.27" rx="2.33" ry="2.52"/>
<circle class="st0" cx="613.64" cy="275.21" r="3.33"/>
<circle class="st0" cx="606.85" cy="274.4" r="3.17"/>
<circle class="st0" cx="603.64" cy="277.63" r="1.26"/>
<ellipse class="st0" cx="616.13" cy="269.56" rx="2.43" ry="2.35"/>
<circle class="st0" cx="618.14" cy="277.18" r="1.26"/>
<circle class="st0" cx="641.05" cy="270.43" r="1.21"/>
<circle class="st0" cx="653.74" cy="260.37" r="3.16"/>
<ellipse transform="matrix(0.5101 -0.8601 0.8601 0.5101 98.7314 684.5468)" class="st0" cx="650.25" cy="255.61" rx="2.52" ry="2.33"/>
<circle class="st0" cx="655.07" cy="255.02" r="2.04"/>
<circle class="st0" cx="644.21" cy="257.05" r="3.17"/>
<circle class="st0" cx="647.96" cy="260.74" r="1.82"/>
<circle class="st2" cx="804.88" cy="256.98" r="7.54"/>
<ellipse class="st2" cx="812.19" cy="245" rx="4.43" ry="4.68"/>
<circle class="st2" cx="820.46" cy="306.38" r="2.77"/>
<circle class="st2" cx="798.48" cy="233.47" r="4.92"/>
<circle class="st2" cx="804.63" cy="246.23" r="3.17"/>
<circle class="st2" cx="794.02" cy="239.24" r="2.44"/>
<circle class="st2" cx="794.82" cy="243.68" r="1.95"/>
<circle class="st2" cx="800.04" cy="241.73" r="3.27"/>
<circle class="st2" cx="805.5" cy="235.42" r="2.44"/>
<circle class="st2" cx="804.88" cy="239.79" r="1.95"/>
<circle class="st2" cx="790.63" cy="241" r="1.21"/>
<circle class="st2" cx="798.48" cy="247.38" r="2.38"/>
<circle class="st2" cx="798.12" cy="251.28" r="1.21"/>
<circle class="st2" cx="817.1" cy="260.47" r="3.02"/>
<circle class="st2" cx="799.84" cy="266.23" r="2.52"/>
<circle class="st2" cx="813.89" cy="269.82" r="6.57"/>
<circle class="st2" cx="805.18" cy="266.97" r="2.01"/>
<circle class="st2" cx="802.17" cy="273.83" r="5.02"/>
<circle class="st2" cx="806.36" cy="289.93" r="5.83"/>
<ellipse transform="matrix(0.983 -0.1838 0.1838 0.983 -38.2555 152.0449)" class="st2" cx="801.07" cy="282.39" rx="3.51" ry="3.48"/>
<ellipse class="st2" cx="813.46" cy="281.58" rx="5.28" ry="4.91"/>
<circle class="st2" cx="806.1" cy="280.8" r="2.04"/>
<circle class="st2" cx="816.03" cy="290.28" r="4.15"/>
<circle class="st2" cx="808.31" cy="276.67" r="1.73"/>
<circle class="st2" cx="818.74" cy="277.29" r="1.73"/>
<circle class="st2" cx="799.84" cy="295.98" r="3.1"/>
<circle class="st2" cx="798.65" cy="287.6" r="2.42"/>
<circle class="st2" cx="805.18" cy="298.52" r="2.76"/>
<circle class="st2" cx="819.51" cy="285.18" r="1.95"/>
<circle class="st2" cx="815.71" cy="253.03" r="4.42"/>
<circle class="st2" cx="812.68" cy="261.43" r="1.21"/>
<circle class="st2" cx="804.19" cy="307.21" r="5.83"/>
<circle class="st2" cx="814.39" cy="300.2" r="5.77"/>
<circle class="st2" cx="799.84" cy="301.05" r="1.73"/>
<circle class="st2" cx="814.57" cy="310.16" r="4.15"/>
<circle class="st2" cx="809.43" cy="315.16" r="3.1"/>
<circle class="st2" cx="804.19" cy="314.85" r="1.73"/>
<circle class="st2" cx="814.57" cy="317.31" r="2.52"/>
<circle class="st2" cx="820.9" cy="311.72" r="2.01"/>
<circle class="st2" cx="819.15" cy="315.44" r="1.73"/>
<circle class="st2" cx="810.02" cy="238.4" r="2.42"/>
<circle class="st2" cx="792.58" cy="229.66" r="1.95"/>
<ellipse transform="matrix(0.997 -0.077 0.077 0.997 -17.1482 58.2058)" class="st2" cx="746.56" cy="251.58" rx="7.48" ry="7.12"/>
<circle class="st2" cx="771.29" cy="234.53" r="7.54"/>
<circle class="st2" cx="763.35" cy="241.93" r="3.27"/>
<ellipse transform="matrix(0.997 -0.077 0.077 0.997 -16.3118 58.84)" class="st2" cx="755.21" cy="241.04" rx="4.73" ry="4.92"/>
<circle class="st2" cx="784.89" cy="231.74" r="4.92"/>
<circle class="st2" cx="748.55" cy="242.33" r="1.95"/>
<circle class="st2" cx="756.23" cy="248.65" r="2.38"/>
<ellipse transform="matrix(0.997 -0.077 0.077 0.997 -16.6751 59.2314)" class="st2" cx="760.1" cy="245.95" rx="1.54" ry="1.36"/>
<ellipse transform="matrix(0.997 -0.077 0.077 0.997 -15.9724 59.3044)" class="st2" cx="761.4" cy="236.87" rx="1.99" ry="1.92"/>
<circle class="st2" cx="778.83" cy="228.92" r="1.73"/>
<circle class="st2" cx="780.7" cy="237.89" r="2.44"/>
<circle class="st2" cx="761.73" cy="232.05" r="2.82"/>
<circle class="st2" cx="757.22" cy="233.99" r="1.95"/>
<ellipse class="st2" cx="786.48" cy="239.79" rx="3.13" ry="2.92"/>
<ellipse transform="matrix(0.997 -0.077 0.077 0.997 -16.1298 58.345)" class="st2" cx="748.87" cy="238.43" rx="1.73" ry="1.67"/>
<circle class="st2" cx="751.42" cy="236.06" r="1.09"/>
<ellipse transform="matrix(0.997 -0.077 0.077 0.997 -16.4659 58.0297)" class="st2" cx="744.62" cy="242.64" rx="1.99" ry="1.92"/>
<circle class="st2" cx="753.87" cy="234.76" r="1.09"/>
<circle class="st2" cx="773.13" cy="313.16" r="7.54"/>
<circle class="st2" cx="759" cy="305.62" r="3.27"/>
<ellipse transform="matrix(0.9966 -0.0829 0.0829 0.9966 -22.6996 66.4881)" class="st2" cx="789.17" cy="306.55" rx="4.73" ry="4.92"/>
<circle class="st2" cx="761.32" cy="317.1" r="4.92"/>
<ellipse transform="matrix(0.9966 -0.0829 0.0829 0.9966 -23.2543 63.357)" class="st2" cx="751.2" cy="311.66" rx="6.41" ry="5.98"/>
<circle class="st2" cx="795.82" cy="305.22" r="1.95"/>
<ellipse class="st2" cx="794.78" cy="300.2" rx="3.33" ry="2.87"/>
<ellipse transform="matrix(0.9966 -0.0829 0.0829 0.9966 -21.4269 67.1496)" class="st2" cx="797.77" cy="291.56" rx="1.54" ry="1.36"/>
<ellipse transform="matrix(0.9966 -0.0829 0.0829 0.9966 -22.7221 65.9475)" class="st2" cx="782.65" cy="306.55" rx="1.99" ry="1.92"/>
<circle class="st2" cx="767.97" cy="319.77" r="1.73"/>
<circle class="st2" cx="764.79" cy="307.21" r="2.44"/>
<circle class="st2" cx="783.54" cy="311.66" r="2.82"/>
<circle class="st2" cx="757.05" cy="300.47" r="1.95"/>
<circle class="st2" cx="754.85" cy="318.25" r="1.54"/>
<circle class="st2" cx="753.31" cy="303.27" r="2.44"/>
<ellipse transform="matrix(0.9966 -0.0829 0.0829 0.9966 -23.252 66.4047)" class="st2" cx="787.89" cy="313.16" rx="1.73" ry="1.67"/>
<circle class="st2" cx="795.52" cy="295.75" r="1.09"/>
<ellipse transform="matrix(0.9966 -0.0829 0.0829 0.9966 -22.5258 67.3596)" class="st2" cx="799.75" cy="304.89" rx="1.99" ry="1.92"/>
<circle class="st2" cx="781.58" cy="315.44" r="1.09"/>
<circle class="st2" cx="791.15" cy="235.42" r="2.38"/>
<ellipse transform="matrix(0.9966 -0.0829 0.0829 0.9966 -23.0945 64.1909)" class="st2" cx="761.32" cy="310.16" rx="1.73" ry="1.67"/>
<path class="st2" d="M767.73,273.23c1.9,3.71,0.44,8.25-3.27,10.15c-3.71,1.9-8.25,0.44-10.15-3.27c-1.9-3.71-0.44-8.25,3.27-10.15
	C761.29,268.06,765.83,269.52,767.73,273.23"/>
<circle class="st2" cx="788.21" cy="270.21" r="6.69"/>
<path class="st2" d="M759.49,321.79c-3.4,0.28-6.37-2.22-6.65-5.59c-0.28-3.37,2.25-6.33,5.64-6.61s6.37,2.22,6.65,5.59"/>
<path class="st2" d="M752.63,275.93c-1.13,0.58-2.52,0.13-3.11-1c-0.58-1.13-0.13-2.52,1-3.11s2.52-0.13,3.11,1
	C754.21,273.96,753.76,275.35,752.63,275.93"/>
<circle class="st2" cx="736.57" cy="290.81" r="2.31"/>
<circle class="st2" cx="746.84" cy="279.17" r="4.34"/>
<circle class="st2" cx="740.65" cy="282.95" r="2.77"/>
<circle class="st2" cx="743.03" cy="295.38" r="4.92"/>
<circle class="st2" cx="737.39" cy="298.84" r="1.21"/>
<circle class="st2" cx="752.75" cy="283.62" r="3.17"/>
<circle class="st2" cx="738.61" cy="302.68" r="2.38"/>
<ellipse transform="matrix(0.3812 -0.9245 0.9245 0.3812 190.0439 876.8358)" class="st2" cx="750.04" cy="296.45" rx="2.26" ry="2.19"/>
<circle class="st2" cx="754.63" cy="294.83" r="2.8"/>
<circle class="st2" cx="757.35" cy="308.23" r="1.54"/>
<circle class="st2" cx="749.66" cy="290.23" r="3.27"/>
<circle class="st2" cx="741.56" cy="288.25" r="2.44"/>
<circle class="st2" cx="736.42" cy="295.43" r="1.95"/>
<circle class="st2" cx="745.73" cy="286.81" r="1.95"/>
<circle class="st2" cx="753.31" cy="298.94" r="1.21"/>
<circle class="st2" cx="755.4" cy="289.04" r="2.38"/>
<circle class="st2" cx="737.78" cy="286.69" r="1.21"/>
<circle class="st2" cx="746.65" cy="302.87" r="3.5"/>
<circle class="st2" cx="741.56" cy="307.01" r="2.38"/>
<circle class="st2" cx="743.14" cy="310.74" r="1.21"/>
<circle class="st2" cx="778.13" cy="274.46" r="4.34"/>
<circle class="st2" cx="771.29" cy="270.66" r="3.17"/>
<circle class="st2" cx="771.29" cy="276.67" r="2.73"/>
<circle class="st2" cx="766.77" cy="269.82" r="1.09"/>
<circle class="st2" cx="776.36" cy="267.76" r="2.52"/>
<circle class="st2" cx="780.43" cy="267.32" r="1.09"/>
<circle class="st2" cx="794.91" cy="264.19" r="2.42"/>
<circle class="st2" cx="796.74" cy="269.82" r="2.01"/>
<circle class="st3" cx="132.58" cy="319.67" r="3.56"/>
<rect x="0.18" y="35.1" class="st7" width="841.22" height="480.7"/>
</svg>
